<?xml version="1.0" encoding="utf-8"?>
<!-- Generator: Adobe Illustrator 21.0.0, SVG Export Plug-In . SVG Version: 6.00 Build 0)  -->
<svg version="1.1" id="Слой_1" xmlns="http://www.w3.org/2000/svg" xmlns:xlink="http://www.w3.org/1999/xlink" x="0px" y="0px"
	 viewBox="0 0 26 26" style="enable-background:new 0 0 26 26;" xml:space="preserve">
<style type="text/css">
	.st0{fill:#823FDD;}
</style>
<g>
	<path class="st0" d="M23.2,6h-2.4l-0.3-1.8c0,0,0,0,0,0c0-0.2-0.2-0.3-0.4-0.4c-0.1,0-0.1,0-0.2,0c0,0,0,0,0,0l0,0c0,0,0,0,0,0
		c0,0,0,0,0,0L18.6,4l-0.4-1.2c0,0,0-0.1-0.1-0.1c0,0,0,0,0-0.1c0,0-0.1-0.1-0.1-0.1c0,0,0,0,0,0c0,0-0.1,0-0.1,0c0,0-0.1,0-0.1,0
		c0,0,0,0-0.1,0c0,0-0.1,0-0.1,0l0,0c0,0,0,0,0,0s0,0,0,0L7.5,5.5L4.5,6H2.8C1.8,6,1,6.8,1,7.8V22c0,1,0.8,1.9,1.8,1.9h20.5
		c1,0,1.8-0.8,1.8-1.9V7.8C25,6.8,24.2,6,23.2,6z M19.6,4.8L19.8,6h-8.3L19.6,4.8z M17.4,3.5l0.2,0.6l-3.8,0.5L17.4,3.5z M23.5,22
		c0,0.2-0.1,0.4-0.3,0.4H2.8c-0.1,0-0.3-0.2-0.3-0.4V7.8c0-0.2,0.1-0.4,0.3-0.4h20.5c0.1,0,0.3,0.2,0.3,0.4V22z"/>
	<ellipse class="st0" cx="19.9" cy="14.9" rx="1" ry="1"/>
</g>
</svg>
