<?xml version="1.0" encoding="utf-8"?>
<!-- Generator: Adobe Illustrator 21.0.0, SVG Export Plug-In . SVG Version: 6.00 Build 0)  -->
<svg version="1.1" id="Layer_1" xmlns="http://www.w3.org/2000/svg" xmlns:xlink="http://www.w3.org/1999/xlink" x="0px" y="0px"
	 viewBox="0 0 50 50" style="enable-background:new 0 0 50 50;" xml:space="preserve">
<style type="text/css">
	.st0{fill:#823FDD;}
</style>
<g id="Layer_1_1_">
	<path class="st0" d="M25,1C11.8,1,1,11.8,1,25s10.8,24,24,24s24-10.8,24-24S38.2,1,25,1z M10.2,41.2l2.1-2.1l-1.4-1.4l-2.1,2.1
		C5.4,36.1,3.3,31.3,3,26h3v-2H3c0.2-5.3,2.4-10.1,5.7-13.8l2.1,2.1l1.4-1.4l-2.1-2.1C13.9,5.4,18.7,3.3,24,3v3h2V3
		c5.3,0.2,10.1,2.4,13.8,5.7l-2.1,2.1l1.4,1.4l2.1-2.1c3.4,3.7,5.5,8.5,5.7,13.8h-3v2h3c-0.2,5.3-2.4,10.1-5.7,13.8l-2.1-2.1
		l-1.4,1.4l2.1,2.1C35.9,44.8,30.7,47,25,47S14.1,44.8,10.2,41.2z"/>
	<path class="st0" d="M25.5,23.1C25.3,23,25.2,23,25,23c-1.1,0-2,0.9-2,2s0.9,2,2,2s2-0.9,2-2c0-0.2,0-0.3-0.1-0.5l9.8-9.8l-1.4-1.4
		L25.5,23.1z"/>
	<rect x="24" y="39" class="st0" width="2" height="2"/>
	<rect x="29" y="39" class="st0" width="2" height="2"/>
	<rect x="19" y="39" class="st0" width="2" height="2"/>
</g>
</svg>
