<?xml version="1.0" ?><!DOCTYPE svg  PUBLIC '-//W3C//DTD SVG 1.1//EN'  'http://www.w3.org/Graphics/SVG/1.1/DTD/svg11.dtd'><svg enable-background="new 0 0 512 512" height="512px" id="Layer_1" version="1.1" viewBox="0 0 512 512" width="512px" xml:space="preserve" xmlns="http://www.w3.org/2000/svg" xmlns:xlink="http://www.w3.org/1999/xlink"><g><g><g><path d="M7.9,256C7.9,119,119,7.9,256,7.9C393,7.9,504.1,119,504.1,256c0,137-111.1,248.1-248.1,248.1     C119,504.1,7.9,393,7.9,256z" fill="#F3F2F2"/></g></g><g><g><g><path clip-rule="evenodd" d="M371.6,214.3c-10.3,0-18.5,2.7-24.7,4l-1.9,15.7      c3.1-1.5,13-4.2,21.1-4.5c8.2-0.2,13,1.5,11.3,8.5c-24.3,0-40.6,5-43.9,20.7c-4.8,26.9,24.7,26.2,36.5,14.4l-1.4,6.5h21.6      l9.4-42.8C403.3,218.6,386.7,214.1,371.6,214.3z M373,258.2c-1.2,5.7-5.8,8.2-11.3,8.5c-4.8,0.2-9.1-4-6-9      c2.4-4.2,9.1-5.2,13.2-5.2c1.7,0,3.6,0,5.3,0C373.7,254.4,373.5,256.2,373,258.2z" fill="#1A80AD" fill-rule="evenodd"/></g><g><polygon clip-rule="evenodd" fill="#1A80AD" fill-rule="evenodd" points="417.9,197.4 400,279.6 422,279.6 440.1,197.4       417.9,197.4 417.9,197.4     "/></g><g><path clip-rule="evenodd" d="M317.1,197.6h-40.2l-17.8,81.9h23.3l6-27.1H305      c16.4,0,29.8-10,33.4-26.9C342.6,206.4,328.6,197.6,317.1,197.6z M316.4,225.5c-1.4,6.2-7.7,11.2-13.7,11.2h-10.8l4.8-22.4h11.5      C314.2,214.3,317.8,219.3,316.4,225.5z" fill="#1A80AD" fill-rule="evenodd"/></g></g><g><g><path clip-rule="evenodd" d="M161.1,214.3c-10.2,0-18.3,2.7-24.2,4L135,234      c2.8-1.5,12.6-4.2,20.6-4.5c8.1-0.2,12.8,1.5,11.4,8.5c-24,0-40.1,5-43.4,20.7c-4.7,26.9,24.4,26.2,35.8,14.4l-1.4,6.5h21.6      l9.2-42.8C192.7,218.6,176.1,214.1,161.1,214.3z M162.8,258.2c-1.2,5.7-5.9,8.2-11.4,8.5c-4.7,0.2-8.8-4-5.7-9      c2.4-4.2,9-5.2,12.8-5.2c1.9,0,3.6,0,5.5,0C163.5,254.4,163,256.2,162.8,258.2z" fill="#1A5B80" fill-rule="evenodd"/></g><g><polygon clip-rule="evenodd" fill="#1A5B80" fill-rule="evenodd" points="198.3,215.5 219.9,215.5 223.4,253.7 244.5,215.5       266.7,215.5 215.5,306.8 191.3,306.8 207.1,280 198.3,215.5 198.3,215.5     "/></g><g><path clip-rule="evenodd" d="M107.5,197.6H67.2l-17.9,81.9H73l5.8-27.1h16.9      c16.2,0,29.7-10,33.3-26.9C133,206.4,119.3,197.6,107.5,197.6z M106.7,225.5c-1.4,6.2-7.5,11.2-13.5,11.2H82.1l5.1-22.4h11.6      C104.6,214.3,108.4,219.3,106.7,225.5z" fill="#1A5B80" fill-rule="evenodd"/></g></g><g><g><path d="M444.8,208v-9.7h-3.6V197h8.7v1.3h-3.6v9.7H444.8z" fill="#1A5B80"/></g><g><path d="M451.4,208v-11h2.2l2.6,7.8c0.2,0.7,0.4,1.3,0.5,1.6c0.1-0.4,0.3-1,0.6-1.8l2.6-7.6h2v11h-1.4v-9.2      l-3.2,9.2h-1.3l-3.2-9.4v9.4H451.4z" fill="#1A5B80"/></g></g></g></g></svg>