<?xml version="1.0" ?><svg style="enable-background:new 0 0 50 50;" version="1.1" viewBox="0 0 50 50" xml:space="preserve" xmlns="http://www.w3.org/2000/svg" xmlns:xlink="http://www.w3.org/1999/xlink"><g id="Layer_1"><path d="M9,6v38c0,2.757,2.243,5,5,5h22c2.757,0,5-2.243,5-5V6c0-2.757-2.243-5-5-5H14C11.243,1,9,3.243,9,6z M11,10h28v30H11V10z    M36,47H14c-1.654,0-3-1.346-3-3v-2h28v2C39,45.654,37.654,47,36,47z M14,3h22c1.654,0,3,1.346,3,3v2H11V6C11,4.346,12.346,3,14,3z   "/><rect height="2" transform="matrix(0.7071 -0.7071 0.7071 0.7071 -12.3198 21.2574)" width="9.899" x="14.55" y="24.5"/><rect height="2" transform="matrix(0.7071 -0.7071 0.7071 0.7071 -11.1838 27)" width="19.799" x="17.101" y="26"/><rect height="2" transform="matrix(0.7071 -0.7071 0.7071 0.7071 -4.8198 24.364)" width="5.657" x="24.172" y="17"/></g><g/></svg>